<svg width="79" height="79" viewBox="0 0 79 79" fill="none" xmlns="http://www.w3.org/2000/svg">
<circle cx="39.6353" cy="39.2832" r="38" fill="#4CDE35" stroke="black" stroke-width="2"/>
<path d="M20.3538 43.862C20.3538 54.4944 29.0018 63.1454 39.6371 63.1454C42.1699 63.1471 44.6782 62.6495 47.0185 61.681C49.3589 60.7126 51.4853 59.2922 53.2763 57.5012C55.0673 55.7103 56.4876 53.5838 57.456 51.2435C58.4245 48.9031 58.9221 46.3948 58.9204 43.862C58.9201 43.6502 58.8359 43.4471 58.6861 43.2973C58.5363 43.1475 58.3332 43.0632 58.1214 43.063H21.1528C20.9409 43.0632 20.7378 43.1475 20.5881 43.2973C20.4383 43.4471 20.354 43.6502 20.3538 43.862ZM57.3045 44.661C57.2508 45.8601 57.0754 47.0506 56.7809 48.2142H22.4951C22.199 47.0509 22.0229 45.8603 21.9696 44.661H57.3045ZM22.6746 48.8722H56.6004C55.5192 52.5325 53.2829 55.7448 50.2255 58.0293C47.1681 60.3138 43.4537 61.5479 39.6371 61.5473C31.6244 61.5473 24.8404 56.1912 22.6746 48.8722Z" fill="#151515"/>
<path d="M45.1945 57.9997C46.9977 57.2221 48.6007 56.0451 49.8824 54.5574C49.9393 54.4912 50.0203 54.4503 50.1073 54.4438C50.1944 54.4373 50.2805 54.4656 50.3467 54.5226C50.4129 54.5795 50.4538 54.6605 50.4603 54.7476C50.4668 54.8346 50.4385 54.9207 50.3815 54.9869C49.0326 56.5505 47.3465 57.7876 45.4502 58.605C45.4092 58.6224 45.3651 58.6313 45.3205 58.6314C45.2446 58.6315 45.171 58.6055 45.1121 58.5576C45.0532 58.5097 45.0127 58.4429 44.9974 58.3685C44.9822 58.2942 44.9931 58.2168 45.0283 58.1496C45.0636 58.0824 45.121 58.0294 45.1908 57.9997H45.1945Z" fill="#151515"/>
<path d="M55.9231 25.7846C57.4694 24.1518 57.0737 21.7426 57.0558 21.6486C57.0317 21.5095 56.9712 21.3792 56.8803 21.2711C56.7895 21.163 56.6717 21.0808 56.5388 21.0331C56.4059 20.9853 56.2628 20.9736 56.1239 20.9992C55.985 21.0247 55.8554 21.0866 55.7483 21.1786L52.2401 24.1875L53.3033 18.916C53.3317 18.7754 53.3216 18.6297 53.2743 18.4943C53.2269 18.3589 53.144 18.2387 53.0342 18.1464C52.9244 18.0541 52.7918 17.993 52.6502 17.9697C52.5087 17.9463 52.3635 17.9615 52.2298 18.0136C52.1245 18.054 49.6326 19.0476 48.9398 21.4249C48.622 22.5096 48.7311 23.6752 49.2612 24.9029C48.5767 24.7956 47.8766 24.8468 47.2148 25.0523C46.0615 25.4284 45.1779 26.2969 44.5894 27.6308C44.4105 28.0485 44.2583 28.477 44.1335 28.9139C44.1335 28.9233 44.1279 28.9336 44.125 28.943C43.2461 31.9454 42.7404 36.9801 42.8363 39.6272C42.8502 40.0624 42.9872 40.4848 43.2314 40.8454C43.4757 41.2059 43.8171 41.4898 44.2162 41.6642C44.5122 41.7956 44.8324 41.8638 45.1562 41.8644C45.7039 41.8638 46.2334 41.6682 46.6499 41.3126C47.8635 40.2842 49.5292 38.5556 50.9984 36.8006C52.1367 35.4394 53.072 34.1685 53.7028 33.1251C53.9376 32.7441 54.1479 32.3485 54.3326 31.9407C54.922 30.6078 54.968 29.3707 54.4698 28.2644C54.2592 27.8047 53.9689 27.3859 53.6126 27.0273C54.561 26.8205 55.3337 26.4069 55.9231 25.7846ZM50.6008 27.0066L50.6252 27.0188L50.6534 27.0329L50.6788 27.0452H50.6863L50.7042 27.0517L50.7361 27.064L50.753 27.0705C50.785 27.0809 52.4451 27.6402 53.0175 28.9271C53.3221 29.6104 53.2751 30.385 52.8728 31.2949C52.7561 31.5523 52.6259 31.8034 52.4827 32.0469L51.1525 31.3372C51.1144 31.3154 51.0722 31.3014 51.0285 31.2961C50.9848 31.2908 50.9405 31.2944 50.8982 31.3065C50.8559 31.3187 50.8165 31.3392 50.7822 31.3669C50.748 31.3945 50.7197 31.4288 50.6989 31.4676C50.6782 31.5064 50.6654 31.549 50.6614 31.5928C50.6574 31.6366 50.6622 31.6808 50.6756 31.7227C50.689 31.7646 50.7106 31.8035 50.7393 31.8369C50.7679 31.8703 50.803 31.8976 50.8423 31.9172L52.1405 32.61C51.4411 33.6779 50.6771 34.7019 49.8525 35.6763L47.2948 34.4985C47.2155 34.462 47.1249 34.4584 47.043 34.4887C46.9612 34.5189 46.8946 34.5804 46.8581 34.6597C46.8216 34.739 46.8181 34.8295 46.8483 34.9114C46.8785 34.9933 46.94 35.0598 47.0193 35.0963L49.4126 36.2037C48.0966 37.7425 46.6696 39.206 45.6187 40.0962C45.5156 40.184 45.3899 40.2409 45.2559 40.2604C45.1219 40.2799 44.9852 40.2613 44.8613 40.2066C44.7374 40.152 44.6315 40.0635 44.5556 39.9513C44.4798 39.8392 44.4371 39.708 44.4324 39.5726C44.345 37.1672 44.7774 32.6984 45.5426 29.8116L48.0947 30.9575C48.1369 30.9767 48.1827 30.9866 48.2291 30.9866C48.3044 30.9866 48.3773 30.9608 48.4358 30.9136C48.4944 30.8663 48.5349 30.8004 48.5507 30.7268C48.5666 30.6533 48.5567 30.5765 48.5228 30.5094C48.4889 30.4422 48.433 30.3887 48.3645 30.3578L45.7249 29.1724C45.8165 28.8702 45.9248 28.5733 46.0492 28.2832C46.4516 27.3732 46.9892 26.8167 47.7018 26.5817C49.046 26.1334 50.5848 26.9916 50.6008 27.0019V27.0066ZM51.3603 20.4726L50.6365 24.0578C50.3376 23.2663 50.2802 22.5406 50.4682 21.8873C50.636 21.3442 50.9436 20.8546 51.3603 20.4679V20.4726ZM55.3591 23.6198C55.2459 24.0204 55.0391 24.3884 54.7556 24.6933C54.3796 25.0899 53.8554 25.3535 53.183 25.4838L55.3591 23.6198Z" fill="#151515"/>
<path d="M34.8166 29.6769C33.636 26.7629 30.957 24.8444 28.2262 24.8444H28.1501C28.1416 24.8218 28.1322 24.7983 28.1228 24.7757C27.5861 23.4625 25.9655 22.876 24.5038 23.4682C23.8309 23.7335 23.2754 24.231 22.9378 24.8707C22.769 25.1835 22.6708 25.5295 22.6502 25.8844C22.6295 26.2392 22.6869 26.5943 22.8184 26.9246C22.9278 27.196 23.0872 27.4444 23.2884 27.6569C22.1143 29.5848 21.946 32.1849 22.8861 34.5123C24.0676 37.4263 26.71 39.3411 29.4548 39.3458C29.8816 40.048 30.6834 40.455 31.5501 40.455C31.9176 40.4545 32.2815 40.3826 32.6217 40.2435C33.9641 39.7002 34.6568 38.2695 34.1662 37.0626C34.1521 37.0297 34.138 36.9968 34.1229 36.9639C35.563 35.0021 35.845 32.214 34.8166 29.6769ZM32.5371 36.3811C32.3999 36.5318 32.3256 36.7295 32.3296 36.9334C32.3336 37.1373 32.4156 37.3318 32.5587 37.4771C32.6122 37.5309 32.6543 37.5948 32.6828 37.6651C32.8398 38.0515 32.5362 38.5553 32.0248 38.7649C31.5135 38.9745 30.9391 38.8241 30.7821 38.4369C30.7716 38.4077 30.7631 38.3779 30.7567 38.3476C30.714 38.1569 30.6029 37.9886 30.4444 37.8744C30.2859 37.7602 30.091 37.7082 29.8966 37.7281C27.6406 37.9565 25.3724 36.3876 24.3703 33.9145C23.5243 31.8314 23.78 29.504 25.018 27.9859C25.0949 27.8916 25.1493 27.781 25.177 27.6625C25.2046 27.544 25.2049 27.4207 25.1777 27.3021C25.1505 27.1835 25.0966 27.0727 25.02 26.9781C24.9435 26.8835 24.8463 26.8077 24.736 26.7563C24.5423 26.6731 24.3877 26.5191 24.3036 26.3258C24.2616 26.2083 24.2451 26.0833 24.2553 25.9589C24.2655 25.8346 24.3022 25.7139 24.3628 25.6048C24.5245 25.303 24.7895 25.0694 25.1092 24.9468C25.7427 24.6893 26.4459 24.8848 26.6442 25.3726C26.6819 25.469 26.6995 25.572 26.6959 25.6753C26.6928 25.792 26.7153 25.9079 26.7619 26.0149C26.8084 26.122 26.8779 26.2175 26.9654 26.2947C27.0529 26.372 27.1562 26.4291 27.2682 26.4621C27.3801 26.4951 27.498 26.5031 27.6134 26.4856C27.8212 26.454 28.0311 26.4383 28.2413 26.4386C30.33 26.4386 32.4046 27.9652 33.3408 30.2738C34.2244 32.4697 33.9105 34.8658 32.5371 36.3811Z" fill="#151515"/>
<path d="M31.5367 35.3378C31.4918 35.3602 31.4422 35.3718 31.392 35.3716C31.3178 35.3713 31.2459 35.3459 31.188 35.2996C31.1301 35.2533 31.0895 35.1887 31.0729 35.1165C31.0562 35.0442 31.0645 34.9684 31.0963 34.9014C31.1281 34.8345 31.1816 34.7802 31.2481 34.7474C31.693 34.5278 32.0325 34.1408 32.1924 33.6711C32.3522 33.2015 32.3192 32.6877 32.1007 32.2423C32.064 32.1641 32.0595 32.0746 32.0882 31.9931C32.1169 31.9116 32.1766 31.8447 32.2542 31.8068C32.3319 31.7689 32.4213 31.763 32.5032 31.7905C32.5851 31.818 32.6529 31.8766 32.692 31.9537C32.8379 32.2523 32.9236 32.5766 32.9441 32.9083C32.9647 33.2399 32.9197 33.5724 32.8117 33.8866C32.7037 34.2009 32.5349 34.4908 32.3148 34.7398C32.0948 34.9888 31.8278 35.192 31.5292 35.3378H31.5367Z" fill="#151515"/>
<path d="M38.8828 40.317C38.8826 40.6173 38.9715 40.911 39.1383 41.1607C39.305 41.4105 39.5421 41.6053 39.8195 41.7203C40.097 41.8353 40.4023 41.8655 40.6969 41.8069C40.9914 41.7484 41.262 41.6038 41.4744 41.3914C41.6868 41.179 41.8314 40.9084 41.8899 40.6139C41.9485 40.3193 41.9183 40.014 41.8033 39.7365C41.6883 39.4591 41.4936 39.222 41.2438 39.0553C40.994 38.8885 40.7003 38.7996 40.4 38.7998C39.9978 38.8006 39.6124 38.9606 39.328 39.245C39.0436 39.5294 38.8836 39.9148 38.8828 40.317ZM39.5408 40.317C39.5408 40.1468 39.5913 39.9805 39.6858 39.839C39.7804 39.6976 39.9148 39.5873 40.072 39.5223C40.2292 39.4572 40.4022 39.4402 40.5691 39.4735C40.7359 39.5067 40.8892 39.5887 41.0094 39.7091C41.1297 39.8295 41.2115 39.9828 41.2446 40.1498C41.2777 40.3167 41.2605 40.4896 41.1953 40.6468C41.13 40.8039 41.0197 40.9382 40.8781 41.0326C40.7365 41.127 40.5701 41.1773 40.4 41.1771C40.172 41.1768 39.9535 41.0861 39.7924 40.9248C39.6313 40.7636 39.5408 40.5449 39.5408 40.317Z" fill="#151515"/>
<path d="M32.7498 20.9701C32.7498 20.6196 32.6459 20.2769 32.4512 19.9854C32.2564 19.6939 31.9797 19.4666 31.6558 19.3324C31.332 19.1982 30.9756 19.1629 30.6318 19.2312C30.2879 19.2994 29.972 19.4681 29.724 19.7159C29.476 19.9636 29.307 20.2793 29.2384 20.6231C29.1698 20.9669 29.2046 21.3233 29.3385 21.6473C29.4724 21.9712 29.6993 22.2483 29.9906 22.4433C30.2819 22.6383 30.6245 22.7426 30.9751 22.743C31.4454 22.743 31.8966 22.5563 32.2293 22.2238C32.5621 21.8914 32.7493 21.4405 32.7498 20.9701ZM32.0918 20.9701C32.092 21.1906 32.0268 21.4061 31.9045 21.5896C31.7822 21.773 31.6083 21.916 31.4047 22.0006C31.2011 22.0852 30.977 22.1075 30.7607 22.0647C30.5445 22.022 30.3457 21.9161 30.1896 21.7604C30.0336 21.6047 29.9271 21.4062 29.8838 21.1901C29.8405 20.9739 29.8623 20.7497 29.9463 20.5459C30.0304 20.3421 30.173 20.1678 30.3561 20.0451C30.5392 19.9223 30.7546 19.8566 30.9751 19.8562C31.2708 19.856 31.5546 19.9732 31.764 20.182C31.9734 20.3909 32.0913 20.6744 32.0918 20.9701Z" fill="#151515"/>
<path d="M58.3589 35.6478C58.3591 35.2695 58.247 34.8996 58.0369 34.585C57.8268 34.2704 57.5281 34.0252 57.1786 33.8804C56.8291 33.7356 56.4444 33.6978 56.0734 33.7717C55.7024 33.8456 55.3616 34.0279 55.0943 34.2955C54.8269 34.5632 54.6449 34.9041 54.5714 35.2752C54.4978 35.6463 54.5361 36.0309 54.6812 36.3803C54.8263 36.7296 55.0718 37.0281 55.3866 37.2379C55.7014 37.4477 56.0714 37.5594 56.4497 37.5588C56.956 37.5576 57.4412 37.3558 57.799 36.9976C58.1568 36.6394 58.3581 36.1541 58.3589 35.6478ZM57.7009 35.6478C57.7009 35.8959 57.6272 36.1385 57.4893 36.3447C57.3514 36.551 57.1554 36.7117 56.9261 36.8066C56.6968 36.9014 56.4445 36.9261 56.2012 36.8774C55.9579 36.8288 55.7345 36.7091 55.5592 36.5335C55.3839 36.3578 55.2647 36.1341 55.2167 35.8907C55.1686 35.6473 55.1938 35.395 55.2892 35.1659C55.3845 34.9369 55.5457 34.7412 55.7523 34.6038C55.9589 34.4663 56.2016 34.3933 56.4497 34.3938C56.7817 34.3948 57.0998 34.5273 57.3343 34.7624C57.5688 34.9974 57.7006 35.3158 57.7009 35.6478Z" fill="#151515"/>
<path d="M22.7451 39.6583C22.7449 39.869 22.8072 40.075 22.9242 40.2503C23.0411 40.4255 23.2073 40.5622 23.4019 40.643C23.5965 40.7237 23.8107 40.7449 24.0173 40.7039C24.224 40.663 24.4139 40.5616 24.5629 40.4127C24.7119 40.2638 24.8135 40.074 24.8546 39.8674C24.8958 39.6608 24.8748 39.4466 24.7942 39.2519C24.7136 39.0573 24.5771 38.8909 24.4019 38.7738C24.2268 38.6567 24.0208 38.5942 23.8101 38.5942C23.5279 38.5945 23.2573 38.7066 23.0577 38.9061C22.858 39.1056 22.7456 39.3761 22.7451 39.6583ZM23.4031 39.6583C23.4031 39.5778 23.427 39.4991 23.4717 39.4322C23.5164 39.3653 23.58 39.3131 23.6544 39.2823C23.7288 39.2515 23.8106 39.2434 23.8896 39.2591C23.9685 39.2748 24.041 39.3136 24.098 39.3705C24.1549 39.4274 24.1936 39.5 24.2094 39.5789C24.2251 39.6579 24.217 39.7397 24.1862 39.8141C24.1554 39.8885 24.1032 39.952 24.0363 39.9968C23.9693 40.0415 23.8906 40.0653 23.8101 40.0653C23.7022 40.0653 23.5987 40.0225 23.5223 39.9461C23.446 39.8698 23.4031 39.7663 23.4031 39.6583Z" fill="#151515"/>
<path d="M46.9911 18.5064C46.9911 18.2958 46.9287 18.0898 46.8116 17.9146C46.6945 17.7395 46.5281 17.603 46.3335 17.5224C46.1388 17.4418 45.9246 17.4208 45.718 17.4619C45.5114 17.5031 45.3216 17.6046 45.1727 17.7537C45.0238 17.9027 44.9224 18.0926 44.8814 18.2992C44.8404 18.5059 44.8617 18.7201 44.9424 18.9147C45.0232 19.1093 45.1598 19.2755 45.3351 19.3924C45.5104 19.5093 45.7164 19.5717 45.9271 19.5715C46.2093 19.571 46.4798 19.4586 46.6793 19.2589C46.8787 19.0593 46.9909 18.7887 46.9911 18.5064ZM46.3331 18.5064C46.3331 18.587 46.3092 18.6657 46.2645 18.7327C46.2197 18.7996 46.1561 18.8518 46.0817 18.8826C46.0072 18.9133 45.9253 18.9214 45.8464 18.9056C45.7674 18.8898 45.6949 18.8509 45.638 18.7939C45.5811 18.7369 45.5424 18.6643 45.5268 18.5853C45.5112 18.5062 45.5194 18.4244 45.5503 18.35C45.5813 18.2757 45.6336 18.2122 45.7007 18.1676C45.7677 18.1229 45.8465 18.0992 45.9271 18.0994C46.0348 18.0997 46.1381 18.1427 46.2143 18.219C46.2904 18.2953 46.3331 18.3986 46.3331 18.5064Z" fill="#151515"/>
<path d="M40.6192 30.1061C42.0649 28.1942 43.6432 25.2566 42.9109 22.1264C42.3037 19.5094 40.1971 17.2825 36.6524 15.5069C36.5569 15.4593 36.4529 15.4313 36.3465 15.4245C36.2401 15.4177 36.1334 15.4322 36.0327 15.4673C35.932 15.5023 35.8393 15.5571 35.76 15.6285C35.6808 15.6998 35.6167 15.7863 35.5713 15.8829C34.5373 18.0825 33.6255 20.2567 33.8793 22.6679C34.167 25.4296 35.9737 27.9676 39.4028 30.4276C39.468 30.4743 39.54 30.5108 39.6162 30.5357C39.5015 32.2823 39.1565 33.7769 38.6057 34.8955C38.5865 34.9342 38.5752 34.9764 38.5724 35.0195C38.5695 35.0627 38.5752 35.106 38.5891 35.1469C38.6029 35.1878 38.6247 35.2256 38.6532 35.2582C38.6817 35.2907 38.7164 35.3172 38.7552 35.3364C38.8006 35.3584 38.8504 35.37 38.9009 35.3702C38.9622 35.3701 39.0224 35.3529 39.0745 35.3205C39.1267 35.2882 39.1687 35.2419 39.196 35.1869C39.7967 33.9649 40.168 32.3452 40.2817 30.4615C40.3658 30.4111 40.4398 30.3454 40.4998 30.2678C40.5393 30.2171 40.5806 30.1635 40.622 30.108L40.6192 30.1061ZM40.2676 27.7636C40.12 25.4804 39.635 23.2243 38.915 21.584C38.8981 21.5437 38.8734 21.5071 38.8423 21.4764C38.8112 21.4457 38.7743 21.4216 38.7337 21.4053C38.6932 21.389 38.6498 21.381 38.6061 21.3817C38.5624 21.3824 38.5192 21.3918 38.4792 21.4094C38.4392 21.4269 38.4031 21.4523 38.3729 21.4839C38.3428 21.5156 38.3193 21.5529 38.3038 21.5938C38.2882 21.6346 38.281 21.6782 38.2825 21.7218C38.284 21.7655 38.2941 21.8085 38.3124 21.8482C39.0889 23.6191 39.5805 26.1402 39.6491 28.6162C37.0556 26.6084 35.6851 24.6043 35.4661 22.5005C35.2846 20.754 35.8881 19.0469 36.6665 17.3201C39.3239 18.7931 40.9012 20.5293 41.3571 22.4902C41.7989 24.3834 41.1456 26.2549 40.2676 27.7636Z" fill="#151515"/>
</svg>
