<svg width="181" height="181" viewBox="0 0 181 181" fill="none" xmlns="http://www.w3.org/2000/svg">
<circle cx="90.7517" cy="90.3096" r="89" fill="#4CDE35" stroke="black" stroke-width="2"/>
<path d="M93.7648 106.793C93.7648 95.8322 84.8476 86.915 73.887 86.915V89.1462C83.6174 89.1462 91.5336 97.0622 91.5336 106.793H93.7648Z" fill="black"/>
<path d="M39.4883 106.045H57.6927V84.8307H66.8176V93.6271C66.8176 99.2546 69.1766 104.686 73.2898 108.53C77.6169 112.574 80.0987 118.166 80.0987 123.872V134.809H82.3299V123.872C82.3299 117.55 79.5902 111.364 74.8135 106.9C71.1501 103.477 69.049 98.639 69.049 93.6273V82.1809C69.049 79.136 71.5263 76.6585 74.5712 76.6585H88.1425C88.705 76.6585 89.1628 77.1164 89.1628 77.6789C89.1628 80.4884 86.8772 82.774 84.0677 82.774H73.9794V85.0052H84.0677C86.0577 85.0052 87.8638 84.2066 89.1856 82.9145C90.2492 83.8702 91.6401 84.4217 93.1326 84.4217C95.1092 84.4217 96.8615 83.4476 97.9376 81.9554C99.0131 83.4476 100.765 84.4217 102.74 84.4217C105.183 84.4217 107.285 82.9346 108.189 80.8188H110.275V102.489C110.275 104.515 109.634 106.442 108.423 108.06C106.229 110.988 105.07 114.374 105.07 117.853V134.81H107.301V117.853C107.301 114.86 108.306 111.937 110.209 109.398C111.712 107.39 112.506 105.001 112.506 102.489V80.8188H123.811V82.5997H115.536V84.8309H123.811V106.045H142.015V92.5925L146.344 87.268V64.5867L142.015 59.2622V45.8096H123.811V71.036H108.661V65.1608C108.661 63.5805 108.045 62.0941 106.927 60.9762C105.811 59.8564 104.324 59.2399 102.74 59.2399C101.333 59.2399 100.04 59.7346 99.0235 60.5579C98.8883 59.2009 98.2946 57.9443 97.3185 56.9717C96.1998 55.8528 94.7131 55.2368 93.1326 55.2368C91.1577 55.2368 89.4072 56.2102 88.3315 57.702C88.1459 57.4452 87.9395 57.2004 87.7108 56.9719C86.5919 55.853 85.1063 55.237 83.5278 55.237C80.467 55.237 77.9411 57.5715 77.6377 60.5537C76.5895 59.7029 75.2916 59.2402 73.9203 59.2402C70.6554 59.2402 67.9994 61.8962 67.9994 65.161V72.1518H70.2306V65.161C70.2306 63.1267 71.8857 61.4713 73.9203 61.4713C74.9069 61.4713 75.8327 61.8551 76.5283 62.553C77.224 63.2485 77.6069 64.1749 77.6069 65.161H79.8381V61.1576C79.8381 59.1232 81.4932 57.4682 83.5278 57.4682C84.5104 57.4682 85.4354 57.8524 86.1329 58.5498C86.8304 59.2473 87.2146 60.1735 87.2146 61.1576V64.0533H89.4458V61.1576C89.4458 59.1232 91.0997 57.4682 93.1323 57.4682C94.117 57.4682 95.0429 57.8521 95.7417 58.5512C96.4383 59.2453 96.822 60.1712 96.822 61.1579V65.1613H99.0532C99.0532 63.1269 100.707 61.4716 102.74 61.4716C103.726 61.4716 104.652 61.8553 105.348 62.5532C106.045 63.2507 106.429 64.1769 106.429 65.1613V78.5039C106.429 80.5368 104.774 82.1908 102.74 82.1908C100.707 82.1908 99.0532 80.5368 99.0532 78.5039V69.6662H96.822V78.5039C96.822 80.5368 95.1667 82.1908 93.1323 82.1908C92.1354 82.1908 91.2113 81.7961 90.5335 81.1193C91.0819 80.0928 91.3938 78.9218 91.3938 77.6791C91.3938 76.35 90.591 75.2058 89.4458 74.7022V67.1876H87.2146V74.4274H79.8381V69.6426H77.6069V74.4274H74.5709C71.5919 74.4274 69.0017 76.117 67.7038 78.5876H57.6927V73.2674H65.0585V71.0362H57.6927V45.8096H39.4883V59.2622L35.1589 64.5867V87.2678L39.4883 92.5923V106.045ZM144.113 65.3795V86.4753L142.015 89.0559V62.7987L144.113 65.3795ZM126.042 48.0408H131.797V96.3846H134.029V48.0408H139.784V56.5181V95.3364V103.814H134.029V99.5792H131.797V103.814H126.042V80.8186V71.036V48.0408ZM123.811 73.2671V78.5874H108.659C108.659 78.5593 108.661 78.5316 108.661 78.5035V73.2671H123.811ZM66.9398 80.8186C66.8609 81.261 66.8176 81.7157 66.8176 82.1807V82.5995H57.6927V80.8186H66.9398ZM41.7195 48.0408H47.4748V52.2753H49.706V48.0408H55.4616V71.036V80.8186V103.814H49.706V55.4701H47.4748V103.814H41.7195V95.3366V56.5181V48.0408ZM37.3901 86.4751V65.3793L39.4883 62.7989V89.0556L37.3901 86.4751Z" fill="black"/>
</svg>